<svg width="111" height="20" fill="none" xmlns="http://www.w3.org/2000/svg"><path d="M37 0h4.725v15.595h8.193v3.966H37V0ZM64.368 19.51l.026-8.255c.009-1.154-.142-2.128-.45-2.922a4.783 4.783 0 0 0-1.32-1.926 5.181 5.181 0 0 0-2.055-1.064 10.155 10.155 0 0 0-2.666-.326c-.92-.017-1.84.109-2.724.372a5.826 5.826 0 0 0-1.963 1.028c-.52.423-.945.959-1.244 1.57a5.944 5.944 0 0 0-.56 1.975h4.43c.012-.29.07-.576.175-.845.09-.232.229-.44.405-.611.176-.167.385-.292.612-.367.265-.084.54-.124.818-.119.292-.004.582.045.857.146.245.093.464.249.636.453.183.225.317.487.393.77.096.348.142.709.136 1.07v.271a35.508 35.508 0 0 0-3.715.422c-.995.154-1.965.448-2.884.872-.793.386-1.405.878-1.835 1.476-.43.599-.647 1.342-.651 2.229v.027c-.01.605.13 1.203.406 1.737.272.511.645.958 1.094 1.31a4.922 4.922 0 0 0 1.615.836c.634.193 1.29.29 1.951.285.497.004.993-.043 1.481-.14.124-.024.267-.064.415-.11.52-.161.998-.439 1.403-.812l1.294-1.19h.187v1.839h3.733Zm-4.351-5.464c.002.34-.03.68-.096 1.015a3.6 3.6 0 0 1-.266.825c-.108.23-.25.442-.423.627a2.437 2.437 0 0 1-1.248.72c-.26.057-.526.085-.792.084a2.755 2.755 0 0 1-.84-.12 1.824 1.824 0 0 1-.634-.339 1.509 1.509 0 0 1-.402-.528 1.593 1.593 0 0 1-.143-.677v-.028c-.01-.345.098-.683.307-.952.248-.29.562-.513.914-.649a6.599 6.599 0 0 1 1.535-.408c.599-.095 1.294-.17 2.088-.226v.656ZM110.974 19.51l.026-8.255c.009-1.154-.141-2.128-.451-2.922a4.776 4.776 0 0 0-1.323-1.925 5.165 5.165 0 0 0-2.054-1.064 10.15 10.15 0 0 0-2.666-.326 8.983 8.983 0 0 0-2.724.372 5.825 5.825 0 0 0-1.963 1.028c-.52.423-.945.959-1.243 1.57a5.949 5.949 0 0 0-.56 1.975h4.43c.011-.29.07-.575.174-.845.091-.231.229-.44.406-.611.175-.167.384-.292.611-.366.265-.084.541-.125.818-.12.292-.004.582.045.857.147.246.092.465.248.637.452.182.225.316.488.393.77.096.348.141.709.135 1.07v.272a35.516 35.516 0 0 0-3.716.42c-.996.154-1.967.447-2.886.872-.793.385-1.405.877-1.835 1.476-.43.599-.645 1.342-.644 2.229v.027c-.01.605.13 1.203.406 1.737a4.11 4.11 0 0 0 1.094 1.31 4.923 4.923 0 0 0 1.614.836 6.565 6.565 0 0 0 1.951.285c.497.004.993-.043 1.481-.14.124-.024.267-.064.415-.11a3.69 3.69 0 0 0 1.403-.812l1.293-1.19h.187v1.839h3.734Zm-4.352-5.464c.003.34-.029.68-.095 1.015a3.649 3.649 0 0 1-.266.825 2.424 2.424 0 0 1-.99 1.079 2.427 2.427 0 0 1-.681.267 3.536 3.536 0 0 1-.792.085 2.765 2.765 0 0 1-.84-.12 1.83 1.83 0 0 1-.634-.34 1.514 1.514 0 0 1-.403-.527 1.607 1.607 0 0 1-.143-.677v-.028c-.01-.345.099-.683.308-.952.248-.29.562-.513.913-.649a6.598 6.598 0 0 1 1.536-.408c.598-.095 1.294-.17 2.087-.226v.656ZM71.116 7.239c.142-.197.774-.726 1.222-1.09a3.705 3.705 0 0 1 1.09-.615 4.59 4.59 0 0 1 .477-.145c.425-.09.86-.133 1.294-.129.735-.02 1.466.111 2.151.386a3.9 3.9 0 0 1 1.492 1.124c.412.522.71 1.13.87 1.783.194.773.287 1.57.278 2.369v8.636h-4.546V11.83a6.114 6.114 0 0 0-.124-1.331 2.613 2.613 0 0 0-.4-.952 1.675 1.675 0 0 0-.682-.565 2.533 2.533 0 0 0-1.906 0 1.628 1.628 0 0 0-.676.565c-.192.288-.328.611-.4.952a5.799 5.799 0 0 0-.135 1.33v7.732h-4.55V5.695c0-.018 4.35 0 4.35 0v1.541h.195M91.494 7.307a3.683 3.683 0 0 0-.675-.825 4.275 4.275 0 0 0-.934-.642 5.163 5.163 0 0 0-1.172-.425 6.027 6.027 0 0 0-1.404-.164c-.5 0-1 .07-1.48.212a5.477 5.477 0 0 0-2.583 1.677 6.73 6.73 0 0 0-.954 1.451c-.28.579-.49 1.191-.622 1.823a10.398 10.398 0 0 0-.218 2.203v.026c-.005.738.068 1.475.218 2.197.132.634.341 1.249.622 1.829.255.522.576 1.008.954 1.444a5.476 5.476 0 0 0 2.582 1.67c.482.142.98.214 1.481.213.471.005.941-.045 1.401-.149.125-.03.263-.074.407-.128a3.706 3.706 0 0 0 1.268-.762l1.107-1.01h.191v1.612h4.352V0l-4.352.006v7.3h-.193.004Zm.12 5.337c.002.39-.026.78-.083 1.165a5.334 5.334 0 0 1-.248.985c-.1.28-.234.547-.4.792a2.396 2.396 0 0 1-1.205.938 2.3 2.3 0 0 1-.771.128 2.365 2.365 0 0 1-.78-.128 2.238 2.238 0 0 1-.662-.36 2.605 2.605 0 0 1-.535-.578 3.43 3.43 0 0 1-.4-.793 5.227 5.227 0 0 1-.248-.983 7.57 7.57 0 0 1-.084-1.166v-.025a7.57 7.57 0 0 1 .084-1.165c.05-.336.134-.666.249-.985a3.42 3.42 0 0 1 .399-.79 2.58 2.58 0 0 1 .534-.58c.199-.156.42-.278.657-.36.253-.087.519-.13.786-.128a2.312 2.312 0 0 1 1.436.485c.208.163.39.358.54.58.166.245.3.51.4.79.114.32.197.65.248.985.057.385.085.775.084 1.165v.028Z" fill="#000"/><path fill-rule="evenodd" clip-rule="evenodd" d="m.695 6.03 4.67-2.857a.434.434 0 0 1 .192-.063.336.336 0 0 1 .106-.104L10.381.05a.332.332 0 0 1 .343-.006l3.87 2.234a.5.5 0 0 1 .131.052l7.164 4.1-.008.037c.066.013.12.07.119.147l-.053 6.394c0 .05-.027.098-.07.124L11 19.948a.148.148 0 0 1-.05.02c-.028.038-.07.046-.137.004L.241 13.526A.509.509 0 0 1 0 13.092v-6.66l.695-.402ZM7.13 3.282l3.648 2.195 3.59-2.16-3.797-2.19L7.13 3.281Zm3.477 3.273a.333.333 0 0 0 .069.032.15.15 0 0 0-.009.05l.1 12.122-9.762-5.952V7.05L5.39 9.365a.44.44 0 0 0 .643-.393V3.803l4.575 2.752Zm5.643-2.173 4.51 2.603-4.3 2.108a.146.146 0 0 1-.21-.133V4.382Z" fill="#000"/></svg>